<svg xmlns="http://www.w3.org/2000/svg" width="17.047" height="25.581" viewBox="0 0 17.047 25.581">
  <path id="Path_65883" data-name="Path 65883" d="M.1,168.059c-.3,2.407-.036,6.227,2.553,11.382s5.5,7.645,7.606,8.843a5.36,5.36,0,0,0,5.035.059l.907-.456a1.447,1.447,0,0,0,.708-1.918l-2.168-4.316a1.447,1.447,0,0,0-1.961-.577l-1.268.637a1.377,1.377,0,0,1-1.3-.013c-1.972-1.128-3.519-4.29-3.519-4.29s-1.612-3.129-1.34-5.385a1.377,1.377,0,0,1,.763-1.047l1.268-.637a1.447,1.447,0,0,0,.708-1.918l-2.168-4.316a1.447,1.447,0,0,0-1.961-.577l-.907.456A5.36,5.36,0,0,0,.1,168.059" transform="translate(0 -163.361)" fill="#fff"/>
</svg>
